<svg width="24" height="25" viewBox="0 0 24 25" fill="none" xmlns="http://www.w3.org/2000/svg">
<path fill-rule="evenodd" clip-rule="evenodd" d="M7.98269 2.86594C4.67615 2.86594 1.99567 5.54642 1.99567 8.85296V16.8357C1.99567 20.1422 4.67615 22.8227 7.98269 22.8227H15.9654C19.2719 22.8227 21.9524 20.1422 21.9524 16.8357V8.85296C21.9524 5.54642 19.2719 2.86594 15.9654 2.86594H7.98269ZM3.99135 8.85296C3.99135 6.6486 5.77833 4.86162 7.98269 4.86162H15.9654C18.1697 4.86162 19.9567 6.6486 19.9567 8.85296V16.8357C19.9567 19.04 18.1697 20.827 15.9654 20.827H7.98269C5.77833 20.827 3.99135 19.04 3.99135 16.8357V8.85296ZM12.9719 8.85296C12.9719 8.30187 12.5251 7.85513 11.974 7.85513C11.423 7.85513 10.9762 8.30187 10.9762 8.85296V11.8465H7.98269C7.4316 11.8465 6.98486 12.2932 6.98486 12.8443C6.98486 13.3954 7.4316 13.8421 7.98269 13.8421H10.9762V16.8357C10.9762 17.3867 11.423 17.8335 11.974 17.8335C12.5251 17.8335 12.9719 17.3867 12.9719 16.8357V13.8421H15.9654C16.5165 13.8421 16.9632 13.3954 16.9632 12.8443C16.9632 12.2932 16.5165 11.8465 15.9654 11.8465H12.9719V8.85296Z" fill="white"/>
</svg>
