<svg width="24" height="25" viewBox="0 0 24 25" fill="none" xmlns="http://www.w3.org/2000/svg">
<path fill-rule="evenodd" clip-rule="evenodd" d="M3.99136 11.8465C3.99136 7.98881 7.1186 4.86157 10.9762 4.86157C14.8339 4.86157 17.9611 7.98881 17.9611 11.8465C17.9611 15.7041 14.8339 18.8313 10.9762 18.8313C7.1186 18.8313 3.99136 15.7041 3.99136 11.8465ZM10.9762 2.86589C6.01642 2.86589 1.99568 6.88663 1.99568 11.8465C1.99568 16.8063 6.01642 20.827 10.9762 20.827C13.358 20.827 15.5231 19.8999 17.1305 18.3868C17.1664 18.4406 17.2081 18.4916 17.2556 18.5391L21.2469 22.5304C21.6366 22.9201 22.2684 22.9201 22.6581 22.5304C23.0478 22.1408 23.0478 21.509 22.6581 21.1193L18.6667 17.1279C18.5816 17.0428 18.4849 16.9762 18.3817 16.9283C19.3753 15.4832 19.9568 13.7327 19.9568 11.8465C19.9568 6.88663 15.9361 2.86589 10.9762 2.86589Z" fill="white"/>
</svg>
